<svg xmlns="http://www.w3.org/2000/svg" xmlns:xlink="http://www.w3.org/1999/xlink" width="517" height="448" viewBox="0 0 517 448">
  <defs>
    <filter id="Polygon_132" x="438" y="261" width="79" height="71" filterUnits="userSpaceOnUse">
      <feOffset dx="3" dy="3" input="SourceAlpha"/>
      <feGaussianBlur stdDeviation="3" result="blur"/>
      <feFlood flood-opacity="0.161"/>
      <feComposite operator="in" in2="blur"/>
      <feComposite in="SourceGraphic"/>
    </filter>
    <filter id="Polygon_134" x="35" y="68" width="79" height="71" filterUnits="userSpaceOnUse">
      <feOffset dx="3" dy="3" input="SourceAlpha"/>
      <feGaussianBlur stdDeviation="3" result="blur-2"/>
      <feFlood flood-opacity="0.161"/>
      <feComposite operator="in" in2="blur-2"/>
      <feComposite in="SourceGraphic"/>
    </filter>
    <filter id="Polygon_128" x="73" y="175" width="117" height="104" filterUnits="userSpaceOnUse">
      <feOffset dx="3" dy="3" input="SourceAlpha"/>
      <feGaussianBlur stdDeviation="3" result="blur-3"/>
      <feFlood flood-opacity="0.161"/>
      <feComposite operator="in" in2="blur-3"/>
      <feComposite in="SourceGraphic"/>
    </filter>
    <filter id="Polygon_127" x="332" y="175" width="117" height="104" filterUnits="userSpaceOnUse">
      <feOffset dx="3" dy="3" input="SourceAlpha"/>
      <feGaussianBlur stdDeviation="3" result="blur-4"/>
      <feFlood flood-opacity="0.161"/>
      <feComposite operator="in" in2="blur-4"/>
      <feComposite in="SourceGraphic"/>
    </filter>
    <filter id="Polygon_133" x="393" y="339" width="79" height="71" filterUnits="userSpaceOnUse">
      <feOffset dx="3" dy="3" input="SourceAlpha"/>
      <feGaussianBlur stdDeviation="3" result="blur-5"/>
      <feFlood flood-opacity="0.161"/>
      <feComposite operator="in" in2="blur-5"/>
      <feComposite in="SourceGraphic"/>
    </filter>
    <filter id="Rectangle_224" x="421" y="68" width="47" height="71" filterUnits="userSpaceOnUse">
      <feOffset dy="3" input="SourceAlpha"/>
      <feGaussianBlur stdDeviation="3" result="blur-6"/>
      <feFlood flood-opacity="0.161"/>
      <feComposite operator="in" in2="blur-6"/>
      <feComposite in="SourceGraphic"/>
    </filter>
    <filter id="Polygon_131" x="407" y="68" width="79" height="71" filterUnits="userSpaceOnUse">
      <feOffset dx="3" dy="3" input="SourceAlpha"/>
      <feGaussianBlur stdDeviation="3" result="blur-7"/>
      <feFlood flood-opacity="0.161"/>
      <feComposite operator="in" in2="blur-7"/>
      <feComposite in="SourceGraphic"/>
    </filter>
    <filter id="Polygon_130" x="35" y="312" width="79" height="71" filterUnits="userSpaceOnUse">
      <feOffset dx="3" dy="3" input="SourceAlpha"/>
      <feGaussianBlur stdDeviation="3" result="blur-8"/>
      <feFlood flood-opacity="0.161"/>
      <feComposite operator="in" in2="blur-8"/>
      <feComposite in="SourceGraphic"/>
    </filter>
    <filter id="Polygon_136" x="203" y="44" width="117" height="104" filterUnits="userSpaceOnUse">
      <feOffset dx="3" dy="3" input="SourceAlpha"/>
      <feGaussianBlur stdDeviation="3" result="blur-9"/>
      <feFlood flood-opacity="0.161"/>
      <feComposite operator="in" in2="blur-9"/>
      <feComposite in="SourceGraphic"/>
    </filter>
    <filter id="Polygon_129" x="203" y="306" width="117" height="104" filterUnits="userSpaceOnUse">
      <feOffset dx="3" dy="3" input="SourceAlpha"/>
      <feGaussianBlur stdDeviation="3" result="blur-10"/>
      <feFlood flood-opacity="0.161"/>
      <feComposite operator="in" in2="blur-10"/>
      <feComposite in="SourceGraphic"/>
    </filter>
  </defs>
  <g id="Group_484" data-name="Group 484" transform="translate(-425 -1322)">
    <g id="Polygon_137" data-name="Polygon 137" transform="translate(531 1414)" fill="none">
      <path d="M216.437,0A20,20,0,0,1,233.77,10.021l64.485,112a20,20,0,0,1,0,19.959l-64.485,112A20,20,0,0,1,216.437,264H87.563A20,20,0,0,1,70.23,253.979l-64.485-112a20,20,0,0,1,0-19.959l64.485-112A20,20,0,0,1,87.563,0Z" stroke="none"/>
      <path d="M 87.56294250488281 1 C 84.22836303710938 1 80.93994140625 1.8822021484375 78.05313110351562 3.551177978515625 C 75.16629028320312 5.220184326171875 72.76094055175781 7.629852294921875 71.09713745117188 10.5196533203125 L 6.6123046875 122.5196533203125 C 4.95440673828125 125.3991088867188 4.078094482421875 128.6773529052734 4.078094482421875 132 C 4.078094482421875 135.3225708007812 4.95440673828125 138.6008453369141 6.61224365234375 141.4803161621094 L 71.09710693359375 253.4803009033203 C 72.76094055175781 256.3701171875 75.16629028320312 258.7798156738281 78.0531005859375 260.4488220214844 C 80.93994140625 262.1177978515625 84.22836303710938 263 87.56294250488281 263 L 216.4370727539062 263 C 219.7716369628906 263 223.06005859375 262.1177978515625 225.9468994140625 260.4488220214844 C 228.8337097167969 258.7798156738281 231.2390594482422 256.3701477050781 232.9029083251953 253.4803466796875 L 297.3877258300781 141.4803161621094 C 299.0455627441406 138.6008453369141 299.921875 135.3226165771484 299.921875 132 C 299.921875 128.6773834228516 299.0455627441406 125.3991088867188 297.3877258300781 122.5196533203125 L 232.9029083251953 10.5196533203125 C 231.2390594482422 7.629852294921875 228.8337097167969 5.220184326171875 225.9468994140625 3.551177978515625 C 223.06005859375 1.8822021484375 219.7716369628906 1 216.4370727539062 1 L 87.56294250488281 1 M 87.56294250488281 0 L 216.4370727539062 0 C 223.5909118652344 0 230.1999816894531 3.821014404296875 233.76953125 10.02069091796875 L 298.2543334960938 122.0206909179688 C 301.8110656738281 128.1981964111328 301.8110656738281 135.8018035888672 298.2543334960938 141.9792785644531 L 233.76953125 253.9793090820312 C 230.1999816894531 260.1789855957031 223.5909118652344 264 216.4370727539062 264 L 87.56294250488281 264 C 80.40910339355469 264 73.80001831054688 260.1789855957031 70.23048400878906 253.9792633056641 L 5.745635986328125 141.9792785644531 C 2.18890380859375 135.8017730712891 2.18890380859375 128.1981964111328 5.74566650390625 122.0206909179688 L 70.23052978515625 10.02069091796875 C 73.80001831054688 3.821014404296875 80.40910339355469 0 87.56294250488281 0 Z" stroke="none" fill="#009fe3"/>
    </g>
    <g id="Polygon_138" data-name="Polygon 138" transform="translate(425 1322)" fill="none">
      <path d="M375.438,0A20,20,0,0,1,392.77,10.019l117.482,204a20,20,0,0,1,0,19.962l-117.482,204A20,20,0,0,1,375.438,448H140.562a20,20,0,0,1-17.331-10.019l-117.482-204a20,20,0,0,1,0-19.962l117.482-204A20,20,0,0,1,140.562,0Z" stroke="none"/>
      <path d="M 140.5616149902344 0.999969482421875 C 137.2273864746094 0.999969482421875 133.9392700195312 1.881988525390625 131.0526733398438 3.55072021484375 C 128.1660766601562 5.219390869140625 125.7607421875 7.628662109375 124.0968017578125 10.51797485351562 L 6.614593505859375 214.5179901123047 C 4.9560546875 217.3978576660156 4.0794677734375 220.6766510009766 4.0794677734375 223.9999847412109 C 4.0794677734375 227.3232574462891 4.9560546875 230.60205078125 6.614593505859375 233.4819183349609 L 124.0967407226562 437.48193359375 C 125.7606811523438 440.3713073730469 128.1659851074219 442.7805786132812 131.0526123046875 444.4492492675781 C 133.939208984375 446.117919921875 137.2273864746094 446.9999084472656 140.5616149902344 446.9999084472656 L 375.4385375976562 446.9999084472656 L 375.4384765625 448.9999084472656 L 375.4385986328125 446.9999084472656 C 378.7725830078125 446.9999084472656 382.0606689453125 446.1178588867188 384.9473876953125 444.4490661621094 C 387.8341369628906 442.7803039550781 390.2394104003906 440.3711242675781 391.9031982421875 437.48193359375 L 509.3854064941406 233.4819793701172 C 511.0439453125 230.6021118164062 511.9205322265625 227.3233184814453 511.9205322265625 223.9999847412109 C 511.9205322265625 220.6766510009766 511.0439453125 217.3978576660156 509.3854064941406 214.5179901123047 L 391.9031982421875 10.51797485351562 C 390.2392578125 7.628662109375 387.833984375 5.219390869140625 384.9473876953125 3.55072021484375 C 382.060791015625 1.881988525390625 378.7725830078125 0.999969482421875 375.4384155273438 0.999969482421875 L 140.5616149902344 0.999969482421875 M 140.5616149902344 -3.0517578125e-05 L 375.4384155273438 -3.0517578125e-05 C 382.591552734375 -3.0517578125e-05 389.2000732421875 3.82025146484375 392.7698059082031 10.0189208984375 L 510.2520141601562 214.0189208984375 C 513.81005859375 220.1973114013672 513.81005859375 227.8026580810547 510.2520141601562 233.9810485839844 L 392.7698059082031 437.9809875488281 C 389.2002868652344 444.1793518066406 382.5912170410156 447.9999084472656 375.4385986328125 447.9999084472656 C 375.4381713867188 447.9999084472656 375.4388427734375 447.9999084472656 375.4384155273438 447.9999084472656 L 140.5616149902344 447.9999084472656 C 133.4084777832031 448 126.7999267578125 444.1797180175781 123.2301330566406 437.9809875488281 L 5.74798583984375 233.9809875488281 C 2.18994140625 227.8026580810547 2.18994140625 220.1973114013672 5.74798583984375 214.0189208984375 L 123.2301940917969 10.0189208984375 C 126.7999877929688 3.82025146484375 133.4085388183594 -3.0517578125e-05 140.5616149902344 -3.0517578125e-05 Z" stroke="none" fill="#009fe3"/>
    </g>
    <g id="Group_477" data-name="Group 477" transform="translate(67 -60)">
      <g transform="matrix(1, 0, 0, 1, 358, 1382)" filter="url(#Polygon_132)">
        <path id="Polygon_132-2" data-name="Polygon 132" d="M42.28,0a6,6,0,0,1,5.2,3.007l11.8,20.5a6,6,0,0,1,0,5.985l-11.8,20.5A6,6,0,0,1,42.28,53H18.72a6,6,0,0,1-5.2-3.007l-11.8-20.5a6,6,0,0,1,0-5.985l11.8-20.5A6,6,0,0,1,18.72,0Z" transform="translate(444 267)" fill="#fafafa"/>
      </g>
      <g id="Group_473" data-name="Group 473" transform="translate(9180.085 16200.538)">
        <path id="Path_138" data-name="Path 138" d="M34.649,33.038H25.686A3.154,3.154,0,0,0,22.3,36.173a3.115,3.115,0,0,0,3.384,3.135h8.963Z" transform="translate(-8373.137 -14552.859)" fill="#669df6"/>
        <ellipse id="Ellipse_73" data-name="Ellipse 73" cx="3.087" cy="3.135" rx="3.087" ry="3.135" transform="translate(-8341.574 -14519.85)" fill="#1a73e8"/>
        <path id="Path_139" data-name="Path 139" d="M23.262,22.737H14.3a3.154,3.154,0,0,0-3.384,3.135A3.115,3.115,0,0,0,14.3,29.006h8.963Z" transform="translate(-8371 -14550.927)" fill="#669df6"/>
        <ellipse id="Ellipse_74" data-name="Ellipse 74" cx="3.087" cy="3.135" rx="3.087" ry="3.135" transform="translate(-8350.825 -14528.19)" fill="#1a73e8"/>
        <path id="Path_140" data-name="Path 140" d="M34.649,12.471H25.686A3.154,3.154,0,0,0,22.3,15.605a3.115,3.115,0,0,0,3.384,3.135h8.963Z" transform="translate(-8373.137 -14549)" fill="#669df6"/>
        <ellipse id="Ellipse_75" data-name="Ellipse 75" cx="3.087" cy="3.135" rx="3.087" ry="3.135" transform="translate(-8341.574 -14536.529)" fill="#1a73e8"/>
      </g>
    </g>
    <g id="Group_475" data-name="Group 475" transform="translate(-57 -286)">
      <g transform="matrix(1, 0, 0, 1, 482, 1608)" filter="url(#Polygon_134)">
        <path id="Polygon_134-2" data-name="Polygon 134" d="M42.28,0a6,6,0,0,1,5.2,3.007l11.8,20.5a6,6,0,0,1,0,5.985l-11.8,20.5A6,6,0,0,1,42.28,53H18.72a6,6,0,0,1-5.2-3.007l-11.8-20.5a6,6,0,0,1,0-5.985l11.8-20.5A6,6,0,0,1,18.72,0Z" transform="translate(41 74)" fill="#fafafa"/>
      </g>
      <g id="Group_469" data-name="Group 469" transform="translate(8845 16530)">
        <path id="Path_132" data-name="Path 132" d="M14.546,2.81A11.712,11.712,0,0,0,2.75,14.522v8.667H9.264V14.628A5.365,5.365,0,0,1,14.6,9.257H23.2V2.81Z" transform="translate(-8305.744 -14835.792)" fill="#ea4335"/>
        <path id="Path_133" data-name="Path 133" d="M26.666,2.9a3.257,3.257,0,0,0-4.144,3.112v8.528a5.388,5.388,0,0,1-5.371,5.371H8.59v6.52h8.494A11.891,11.891,0,0,0,29.042,14.615V6.037A3.218,3.218,0,0,0,26.666,2.9Z" transform="translate(-8308.328 -14835.779)" fill="#ee675c"/>
        <circle id="Ellipse_69" data-name="Ellipse 69" cx="3.263" cy="3.263" r="3.263" transform="translate(-8303 -14815.865)" fill="#c5221f"/>
      </g>
    </g>
    <g id="Group_481" data-name="Group 481" transform="translate(-12 -45)">
      <g transform="matrix(1, 0, 0, 1, 437, 1367)" filter="url(#Polygon_128)">
        <path id="Polygon_128-2" data-name="Polygon 128" d="M68.468,0a10,10,0,0,1,8.667,5.012l18.994,33a10,10,0,0,1,0,9.977l-18.994,33A10,10,0,0,1,68.468,86H30.532a10,10,0,0,1-8.667-5.011l-18.994-33a10,10,0,0,1,0-9.977l18.994-33A10,10,0,0,1,30.532,0Z" transform="translate(79 181)" fill="#fafafa"/>
      </g>
      <g id="Group_468" data-name="Group 468" transform="translate(551 1574)">
        <path id="Path_134" data-name="Path 134" d="M37.846,22.2a4.133,4.133,0,0,1,4.277,7.074l-.161.092L20.544,41.66a4.116,4.116,0,0,1-4.265-7.029l.161-.092Z" transform="translate(-14.272 -9.264)" fill="#81c995"/>
        <path id="Path_135" data-name="Path 135" d="M22.453,13.049A4.1,4.1,0,0,0,17.5,9.013,4.242,4.242,0,0,0,14.266,13.2V37.7l8.187.149Z" transform="translate(-14.266 -8.905)" fill="#34a853"/>
        <path id="Path_136" data-name="Path 136" d="M37.933,28.974a4.3,4.3,0,0,0,5.618-1.514,4.082,4.082,0,0,0-1.422-5.584L20.516,9.494a4.059,4.059,0,0,0-5.584,1.376l-.08.149a4.093,4.093,0,0,0,1.468,5.6Z" transform="translate(-14.266 -8.904)" fill="#5bb974"/>
        <path id="Path_137" data-name="Path 137" d="M42.184,29.373,22.691,40.265V30.909l15.468-8.622A4.242,4.242,0,0,1,44.2,24.58a4.1,4.1,0,0,1-2.018,4.793Z" transform="translate(-14.504 -9.268)" fill="#81c995"/>
        <circle id="Ellipse_71" data-name="Ellipse 71" cx="4.093" cy="4.093" r="4.093" transform="translate(0.001 24.909)" fill="#1e8e3e"/>
      </g>
    </g>
    <g id="Group_482" data-name="Group 482" transform="translate(28 -19)">
      <g transform="matrix(1, 0, 0, 1, 397, 1341)" filter="url(#Polygon_127)">
        <path id="Polygon_127-2" data-name="Polygon 127" d="M68.468,0a10,10,0,0,1,8.667,5.012l18.994,33a10,10,0,0,1,0,9.977l-18.994,33A10,10,0,0,1,68.468,86H30.532a10,10,0,0,1-8.667-5.011l-18.994-33a10,10,0,0,1,0-9.977l18.994-33A10,10,0,0,1,30.532,0Z" transform="translate(338 181)" fill="#fafafa"/>
      </g>
      <g id="Group_472" data-name="Group 472" transform="translate(8973.999 15975.182)">
        <path id="Path_147" data-name="Path 147" d="M43.627,48.8a5.414,5.414,0,0,1-5.414,5.431h-.66a5.549,5.549,0,0,1-4.737-5.617V16.472a5.549,5.549,0,0,1,4.737-5.617,5.414,5.414,0,0,1,6.04,5.4Z" transform="translate(-8213.376 -14443.001)" fill="#f9ab00"/>
        <path id="Path_148" data-name="Path 148" d="M18.326,38.527a5.38,5.38,0,1,1-5.346,5.4A5.38,5.38,0,0,1,18.326,38.527ZM32.5,22.2a5.549,5.549,0,0,0-5.245,5.667V42.333c0,3.925,1.692,6.31,4.263,6.767a5.4,5.4,0,0,0,6.463-5.312V27.6a5.414,5.414,0,0,0-5.4-5.414Z" transform="translate(-8221.979 -14438.071)" fill="#e37400"/>
      </g>
    </g>
    <g id="Group_476" data-name="Group 476" transform="translate(117 -57)">
      <g transform="matrix(1, 0, 0, 1, 308, 1379)" filter="url(#Polygon_133)">
        <path id="Polygon_133-2" data-name="Polygon 133" d="M42.28,0a6,6,0,0,1,5.2,3.007l11.8,20.5a6,6,0,0,1,0,5.985l-11.8,20.5A6,6,0,0,1,42.28,53H18.72a6,6,0,0,1-5.2-3.007l-11.8-20.5a6,6,0,0,1,0-5.985l11.8-20.5A6,6,0,0,1,18.72,0Z" transform="translate(399 345)" fill="#fafafa"/>
      </g>
      <g id="Group_470" data-name="Group 470" transform="translate(9064.424 16451.305)">
        <path id="Path_141" data-name="Path 141" d="M27.32,25.954a3.177,3.177,0,0,0-3.212-3.1H15.836v6.16h5.359v5.21a3.045,3.045,0,0,0,2.869,3.265h.114a3.177,3.177,0,0,0,3.151-3.212Z" transform="translate(-8351.082 -14726.837)" fill="#b366f6"/>
        <circle id="Ellipse_77" data-name="Ellipse 77" cx="3.133" cy="3.133" r="3.133" transform="translate(-8338.424 -14703.98)" fill="#8430ce"/>
        <path id="Path_142" data-name="Path 142" d="M36.608,14.809a3.151,3.151,0,0,0-3.151-3.115H25.036a3.151,3.151,0,0,0,0,6.239h5.421v5.21a3.1,3.1,0,0,0,6.16.255q0-.123,0-.255Z" transform="translate(-8352.732 -14723.999)" fill="#c58af8"/>
      </g>
    </g>
    <g id="Component_22_1" data-name="Component 22 – 1" transform="translate(838 1396)">
      <g transform="matrix(1, 0, 0, 1, -413, -74)" filter="url(#Rectangle_224)">
        <rect id="Rectangle_224-2" data-name="Rectangle 224" width="29" height="53" rx="14.5" transform="translate(430 74)" fill="#fafafa" opacity="0"/>
      </g>
      <g transform="matrix(1, 0, 0, 1, -413, -74)" filter="url(#Polygon_131)">
        <path id="Polygon_131-2" data-name="Polygon 131" d="M42.28,0a6,6,0,0,1,5.2,3.007l11.8,20.5a6,6,0,0,1,0,5.985l-11.8,20.5A6,6,0,0,1,42.28,53H18.72a6,6,0,0,1-5.2-3.007l-11.8-20.5a6,6,0,0,1,0-5.985l11.8-20.5A6,6,0,0,1,18.72,0Z" transform="translate(413 74)" fill="#fafafa"/>
      </g>
      <g id="google-tag-manager" transform="translate(19.014 15.049)">
        <path id="Path_151" data-name="Path 151" d="M1025.151,1029.364l-4.151-4.156,8.917-9.008,4.228,4.227Z" transform="translate(-1011.128 -1006.412)" fill="#8ab4f8"/>
        <path id="Path_152" data-name="Path 152" d="M14.053,94.628,9.826,90.4.864,99.362a2.987,2.987,0,0,0,0,4.225l0,0,8.962,8.962,4.146-4.166-6.773-6.9Z" transform="translate(0 -89.574)" fill="#4285f4"/>
        <path id="Path_153" data-name="Path 153" d="M939.816,9.788,930.853.826a2.989,2.989,0,0,0-4.227,4.227l8.967,8.962a2.989,2.989,0,1,0,4.227-4.227Z" transform="translate(-916.801)" fill="#8ab4f8"/>
        <circle id="Ellipse_78" data-name="Ellipse 78" cx="2.962" cy="2.962" r="2.962" transform="translate(8.944 17.936)" fill="#246fdb"/>
      </g>
    </g>
    <g id="Group_479" data-name="Group 479" transform="translate(-292 285)">
      <g transform="matrix(1, 0, 0, 1, 717, 1037)" filter="url(#Polygon_130)">
        <path id="Polygon_130-2" data-name="Polygon 130" d="M42.28,0a6,6,0,0,1,5.2,3.007l11.8,20.5a6,6,0,0,1,0,5.985l-11.8,20.5A6,6,0,0,1,42.28,53H18.72a6,6,0,0,1-5.2-3.007l-11.8-20.5a6,6,0,0,1,0-5.985l11.8-20.5A6,6,0,0,1,18.72,0Z" transform="translate(41 318)" fill="#fafafa"/>
      </g>
      <g id="google-surveys-seeklogo.com" transform="translate(903.633 1371.005)">
        <path id="Path_154" data-name="Path 154" d="M939.541,19.593,948.21,4.252A2.85,2.85,0,0,0,947.179.376a2.794,2.794,0,0,0-3.822,1.008l-.018.032-8.739,15.3Z" transform="translate(-1051.477 0)" fill="#fcc934"/>
        <path id="Path_155" data-name="Path 155" d="M153.191,1204.7l8.292,4.625a2.7,2.7,0,0,1,1.122,3.644c-.021.04-.043.079-.066.118a2.946,2.946,0,0,1-3.931,1.041l-8.308-4.634Z" transform="translate(-274.386 -1193.632)" fill="#fbbc04"/>
        <circle id="Ellipse_79" data-name="Ellipse 79" cx="2.811" cy="2.811" r="2.811" transform="translate(-126.631 13.453) rotate(-45)" fill="#f29900"/>
      </g>
    </g>
    <g id="Group_480" data-name="Group 480" transform="translate(6 1)">
      <g transform="matrix(1, 0, 0, 1, 419, 1321)" filter="url(#Polygon_136)">
        <path id="Polygon_136-2" data-name="Polygon 136" d="M68.468,0a10,10,0,0,1,8.667,5.012l18.994,33a10,10,0,0,1,0,9.977l-18.994,33A10,10,0,0,1,68.468,86H30.532a10,10,0,0,1-8.667-5.011l-18.994-33a10,10,0,0,1,0-9.977l18.994-33A10,10,0,0,1,30.532,0Z" transform="translate(209 50)" fill="#fafafa"/>
      </g>
      <g id="Group_471" data-name="Group 471" transform="translate(658 1394)">
        <path id="Path_143" data-name="Path 143" d="M19.417,33.325a4.317,4.317,0,0,1-6.126,0L6.82,39.787A13.569,13.569,0,0,0,26,20.61l-6.471,6.471a4.544,4.544,0,0,1-.109,6.244Z" transform="translate(-3.191 -4.276)" fill="#34a853"/>
        <path id="Path_144" data-name="Path 144" d="M33.385,19.336a4.453,4.453,0,0,1-6.244,0L20.67,25.807A13.569,13.569,0,0,0,39.847,6.63L33.376,13.1a4.453,4.453,0,0,1,0,6.244Z" transform="translate(-4.454 -3.001)" fill="#5bb974"/>
        <path id="Path_145" data-name="Path 145" d="M39.613,6.266A13.569,13.569,0,0,0,20.436,25.443l6.471-6.471a4.335,4.335,0,0,1,6.126-6.126,4.653,4.653,0,1,0,6.581-6.581Z" transform="translate(-4.101 -2.637)" fill="#1e8e3e"/>
        <path id="Path_146" data-name="Path 146" d="M25.633,20.246A13.569,13.569,0,0,0,6.456,39.423a5,5,0,0,0,7.035,0c1.927-1.927,1.472-4.544-.454-6.471a4.335,4.335,0,0,1,6.126-6.126A4.579,4.579,0,1,0,25.969,20.7a1.563,1.563,0,0,0-.336-.454Z" transform="translate(-2.827 -3.912)" fill="#5bb974"/>
      </g>
    </g>
    <g id="Group_483" data-name="Group 483" transform="translate(-2 7)">
      <g transform="matrix(1, 0, 0, 1, 427, 1315)" filter="url(#Polygon_129)">
        <path id="Polygon_129-2" data-name="Polygon 129" d="M68.468,0a10,10,0,0,1,8.667,5.012l18.994,33a10,10,0,0,1,0,9.977l-18.994,33A10,10,0,0,1,68.468,86H30.532a10,10,0,0,1-8.667-5.011l-18.994-33a10,10,0,0,1,0-9.977l18.994-33A10,10,0,0,1,30.532,0Z" transform="translate(209 312)" fill="#fafafa"/>
      </g>
      <g id="Group_474" data-name="Group 474" transform="translate(240.891 1716.391)">
        <path id="Path_149" data-name="Path 149" d="M445.605-67.053a18.827,18.827,0,0,0-6.287-.137,18.646,18.646,0,0,0-7.255,2.723c-10.872,7.037-10.413,23.525.242,30.459a16.373,16.373,0,0,0,5.8,2.354,19.252,19.252,0,0,0,6.287.286,16.98,16.98,0,0,0,7.5-2.793,19.013,19.013,0,0,0,6.664-7.5A18.3,18.3,0,0,0,445.605-67.053Zm1.208,23.99a8.941,8.941,0,0,1-3.626,1.529,6.858,6.858,0,0,1-3.144-.233,7.861,7.861,0,0,1-2.66-13.794,7.763,7.763,0,0,1,3.385-1.467C448.581-58.436,453.33-47.786,446.813-43.063Z" transform="translate(0 0)" fill="#669df6"/>
        <path id="Path_150" data-name="Path 150" d="M541.013,44c-1.88,3-4.253,4.892-7.013,7.013a33.261,33.261,0,0,0,3.869,4.111,13.723,13.723,0,0,0,2.9,2.559c3.97,2.159,7.977-1.3,7.452-5.461-.308-2.442-2.683-4.179-4.308-5.8A10.768,10.768,0,0,0,541.013,44Z" transform="translate(-83.317 -84.454)" fill="#1a73e8"/>
      </g>
    </g>
    <g id="google-marketing-platform" transform="translate(633.025 1496.025)">
      <path id="Path_160" data-name="Path 160" d="M386.322,1559.509a12.527,12.527,0,0,1,0-17.709,25.04,25.04,0,0,1-35.413,0,12.522,12.522,0,1,1-17.709,17.709,50.141,50.141,0,0,0,70.831,0,12.527,12.527,0,0,1-17.709,0Z" transform="translate(-318.579 -1474.056)" fill="#fbbc04"/>
      <path id="Path_161" data-name="Path 161" d="M85.453,14.621A50.085,50.085,0,1,0,14.621,85.453,12.522,12.522,0,0,1,32.33,67.744,25.041,25.041,0,0,1,67.744,32.33,12.522,12.522,0,1,0,85.453,14.621Z" transform="translate(0 0)" fill="#4184f3"/>
      <circle id="Ellipse_80" data-name="Ellipse 80" cx="12.522" cy="12.522" r="12.522" transform="translate(10.951 64.074)" fill="#34a853"/>
      <path id="Path_162" data-name="Path 162" d="M1479.775,333.2a12.522,12.522,0,1,1-17.709,17.709,25.04,25.04,0,0,1,0,35.413,12.522,12.522,0,0,0,17.709,17.709,50.149,50.149,0,0,0,0-70.831Z" transform="translate(-1394.322 -318.579)" fill="#ea4335"/>
    </g>
  </g>
</svg>
